<?xml version="1.0" encoding="UTF-8"?>
<svg width="470px" height="470px" viewBox="0 0 470 470" version="1.1" xmlns="http://www.w3.org/2000/svg" xmlns:xlink="http://www.w3.org/1999/xlink">
    <!-- Generator: Sketch 64 (93537) - https://sketch.com -->
    <title>codepen@1920</title>
    <desc>Created with Sketch.</desc>
    <g id="Page-1" stroke="none" stroke-width="1" fill="none" fill-rule="evenodd">
        <g id="Artboard" transform="translate(-129.000000, -99.000000)" fill="#FFFFFF" fill-rule="nonzero">
            <g id="codepen" transform="translate(129.000000, 99.000000)">
                <path d="M234.5493,430.5762 C126.4583,430.5762 38.5223,342.6372 38.5223,234.5492 C38.5223,126.4622 126.4583,38.5222 234.5493,38.5222 C342.6363,38.5222 430.5723,126.4622 430.5723,234.5492 C430.5723,342.6372 342.6363,430.5762 234.5493,430.5762 M234.5493,0.0002 C105.0083,0.0002 0.0003,105.0092 0.0003,234.5492 C0.0003,364.0902 105.0083,469.0952 234.5493,469.0952 C364.0863,469.0952 469.0943,364.0902 469.0943,234.5492 C469.0943,105.0092 364.0863,0.0002 234.5493,0.0002" id="Fill-1"></path>
                <path d="M354.6445,255.4072 L323.4645,234.5492 L354.6445,213.6922 L354.6445,255.4072 Z M247.0115,343.8192 L247.0115,285.6862 L301.0465,249.5482 L344.6655,278.7202 L247.0115,343.8192 Z M234.5495,264.0352 L190.4655,234.5492 L234.5495,205.0632 L278.6295,234.5492 L234.5495,264.0352 Z M222.0835,343.8192 L124.4285,278.7202 L168.0515,249.5482 L222.0835,285.6862 L222.0835,343.8192 Z M114.4505,213.6922 L145.6335,234.5492 L114.4505,255.4072 L114.4505,213.6922 Z M222.0835,125.2792 L222.0835,183.4122 L168.0515,219.5582 L124.4285,190.3772 L222.0835,125.2792 Z M247.0115,125.2792 L344.6655,190.3772 L301.0465,219.5582 L247.0115,183.4122 L247.0115,125.2792 Z M379.4615,188.7372 C379.4355,188.5542 379.3895,188.3792 379.3595,188.1962 C379.2975,187.8442 379.2335,187.4932 379.1415,187.1502 C379.0875,186.9442 379.0115,186.7462 378.9475,186.5482 C378.8475,186.2422 378.7485,185.9372 378.6265,185.6402 C378.5415,185.4342 378.4435,185.2282 378.3485,185.0302 C378.2175,184.7472 378.0815,184.4722 377.9245,184.2062 C377.8105,184.0072 377.6885,183.8162 377.5705,183.6262 C377.4025,183.3662 377.2305,183.1142 377.0425,182.8702 C376.9065,182.6872 376.7615,182.5042 376.6165,182.3282 C376.4175,182.1002 376.2115,181.8712 375.9945,181.6572 C375.8315,181.4902 375.6695,181.3222 375.4985,181.1692 C375.2695,180.9632 375.0335,180.7642 374.7925,180.5742 C374.6065,180.4292 374.4225,180.2842 374.2285,180.1472 C374.1555,180.1012 374.0915,180.0402 374.0225,179.9942 L241.4605,91.6202 C237.2735,88.8282 231.8215,88.8282 227.6335,91.6202 L95.0725,179.9942 C95.0035,180.0402 94.9385,180.1012 94.8665,180.1472 C94.6715,180.2842 94.4885,180.4292 94.3055,180.5742 C94.0615,180.7642 93.8245,180.9632 93.6005,181.1692 C93.4245,181.3222 93.2645,181.4902 93.1005,181.6572 C92.8835,181.8712 92.6775,182.1002 92.4825,182.3282 C92.3335,182.5042 92.1885,182.6872 92.0515,182.8702 C91.8685,183.1142 91.6925,183.3662 91.5285,183.6262 C91.4025,183.8162 91.2845,184.0072 91.1705,184.2062 C91.0175,184.4722 90.8805,184.7472 90.7465,185.0302 C90.6515,185.2282 90.5525,185.4342 90.4685,185.6402 C90.3465,185.9372 90.2475,186.2422 90.1475,186.5482 C90.0825,186.7462 90.0105,186.9442 89.9535,187.1502 C89.8615,187.4932 89.8005,187.8442 89.7355,188.1962 C89.7055,188.3792 89.6595,188.5542 89.6365,188.7372 C89.5635,189.2712 89.5225,189.8132 89.5225,190.3622 L89.5225,278.7362 C89.5225,279.2852 89.5635,279.8272 89.6365,280.3692 C89.6595,280.5452 89.7055,280.7272 89.7355,280.9022 C89.8005,281.2542 89.8615,281.6042 89.9535,281.9482 C90.0105,282.1542 90.0825,282.3522 90.1475,282.5512 C90.2475,282.8552 90.3465,283.1612 90.4685,283.4662 C90.5525,283.6732 90.6515,283.8712 90.7465,284.0692 C90.8805,284.3502 91.0175,284.6252 91.1705,284.9002 C91.2845,285.0922 91.4025,285.2812 91.5285,285.4722 C91.6925,285.7322 91.8685,285.9842 92.0515,286.2282 C92.1885,286.4192 92.3335,286.5942 92.4825,286.7692 C92.6775,286.9982 92.8835,287.2272 93.1005,287.4412 C93.2645,287.6082 93.4245,287.7762 93.6005,287.9282 C93.8245,288.1362 94.0615,288.3342 94.3055,288.5242 C94.4885,288.6702 94.6715,288.8142 94.8665,288.9512 C94.9385,288.9972 95.0035,289.0582 95.0725,289.1032 L227.6335,377.4782 C229.7275,378.8742 232.1385,379.5762 234.5495,379.5762 C236.9565,379.5762 239.3665,378.8742 241.4605,377.4782 L374.0225,289.1032 C374.0915,289.0582 374.1555,288.9972 374.2285,288.9512 C374.4225,288.8142 374.6065,288.6702 374.7925,288.5242 C375.0335,288.3342 375.2695,288.1362 375.4985,287.9282 C375.6695,287.7762 375.8315,287.6082 375.9945,287.4412 C376.2115,287.2272 376.4175,286.9982 376.6165,286.7692 C376.7615,286.5942 376.9065,286.4192 377.0425,286.2282 C377.2305,285.9842 377.4025,285.7322 377.5705,285.4722 C377.6885,285.2812 377.8105,285.0922 377.9245,284.9002 C378.0815,284.6252 378.2175,284.3502 378.3485,284.0692 C378.4435,283.8712 378.5415,283.6732 378.6265,283.4662 C378.7485,283.1612 378.8475,282.8552 378.9475,282.5512 C379.0115,282.3522 379.0875,282.1542 379.1415,281.9482 C379.2335,281.6042 379.2975,281.2542 379.3595,280.9022 C379.3895,280.7272 379.4355,280.5452 379.4615,280.3692 C379.5305,279.8272 379.5735,279.2852 379.5735,278.7362 L379.5735,190.3622 C379.5735,189.8132 379.5305,189.2712 379.4615,188.7372 L379.4615,188.7372 Z" id="Fill-3"></path>
            </g>
        </g>
    </g>
</svg>