<?xml version="1.0" encoding="UTF-8"?>
<svg width="512px" height="512px" viewBox="0 0 512 512" version="1.1" xmlns="http://www.w3.org/2000/svg" xmlns:xlink="http://www.w3.org/1999/xlink">
    <!-- Generator: Sketch 64 (93537) - https://sketch.com -->
    <title>linkedin@4x</title>
    <desc>Created with Sketch.</desc>
    <g id="Page-1" stroke="none" stroke-width="1" fill="none" fill-rule="evenodd">
        <g id="Artboard" transform="translate(-108.000000, -68.000000)" fill-rule="nonzero">
            <g id="linkedin" transform="translate(108.000000, 68.000000)">
                <path d="M475.074219,-2.84217094e-14 L36.925781,-2.84217094e-14 C16.53125,-2.84217094e-14 2.84217094e-14,16.53125 2.84217094e-14,36.925781 L2.84217094e-14,475.074219 C2.84217094e-14,495.46875 16.53125,512 36.925781,512 L475.074219,512 C495.46875,512 512,495.46875 512,475.074219 L512,36.925781 C512,16.53125 495.46875,-2.84217094e-14 475.074219,-2.84217094e-14 Z" id="Shape" fill="#0E76A8"></path>
                <polygon id="Path" fill="#FFFFFF" points="181.609375 387 119.261719 387 119.261719 199.425781 181.609375 199.425781"></polygon>
                <path d="M150.4375,173.8125 L150.03125,173.8125 C129.109375,173.8125 115.578125,159.410156 115.578125,141.410156 C115.578125,123.003906 129.523438,109 150.851562,109 C172.179688,109 185.304688,123.003906 185.710938,141.410156 C185.710938,159.410156 172.179688,173.8125 150.4375,173.8125 Z" id="Path" fill="#FFFFFF"></path>
                <path d="M406.421875,387 L344.082031,387 L344.082031,286.652344 C344.082031,261.433594 335.054688,244.234375 312.496094,244.234375 C295.273438,244.234375 285.015625,255.835938 280.507812,267.035156 C278.859375,271.042969 278.457031,276.644531 278.457031,282.25 L278.457031,387 L216.113281,387 C216.113281,387 216.929688,217.023438 216.113281,199.425781 L278.457031,199.425781 L278.457031,225.984375 C286.742188,213.203125 301.566406,195.023438 334.644531,195.023438 C375.664062,195.023438 406.421875,221.832031 406.421875,279.445312 L406.421875,387 Z" id="Path" fill="#FFFFFF"></path>
            </g>
        </g>
    </g>
</svg>