<?xml version="1.0" encoding="UTF-8"?>
<svg width="535px" height="381px" viewBox="0 0 535 381" version="1.1" xmlns="http://www.w3.org/2000/svg" xmlns:xlink="http://www.w3.org/1999/xlink">
    <!-- Generator: Sketch 64 (93537) - https://sketch.com -->
    <title>Logo Copy@4x</title>
    <desc>Created with Sketch.</desc>
    <defs>
        <filter x="-6.2%" y="-8.0%" width="112.1%" height="116.2%" filterUnits="objectBoundingBox" id="filter-1">
            <feOffset dx="2" dy="-3" in="SourceAlpha" result="shadowOffsetOuter1"></feOffset>
            <feGaussianBlur stdDeviation="5" in="shadowOffsetOuter1" result="shadowBlurOuter1"></feGaussianBlur>
            <feColorMatrix values="0 0 0 0 0.273193308   0 0 0 0 0.635008683   0 0 0 0 0.673233696  0 0 0 0.5 0" type="matrix" in="shadowBlurOuter1" result="shadowMatrixOuter1"></feColorMatrix>
            <feMerge>
                <feMergeNode in="shadowMatrixOuter1"></feMergeNode>
                <feMergeNode in="SourceGraphic"></feMergeNode>
            </feMerge>
        </filter>
        <linearGradient x1="50%" y1="100%" x2="50%" y2="0%" id="linearGradient-2">
            <stop stop-color="#330867" offset="0%"></stop>
            <stop stop-color="#30CFD0" offset="100%"></stop>
        </linearGradient>
        <path d="M352,296.906898 C352,292.878393 352.371657,288.858472 353.113924,284.899027 L373.995077,172.762339 L388.958981,92.3977126 C400.669091,29.5450596 455.298498,-10.6925712 511,2.50660449 L459.423,279.436413 L453.959862,308.794256 C452.169872,318.816294 447.887473,328.226224 441.507382,336.156715 C429.611679,350.776367 411.397928,358.125706 392.937378,353.73981 C380.069474,350.500285 368.958091,342.39451 361.939449,331.126764 C355.409631,320.912528 351.958993,309.032116 352,296.906898 L352,296.906898 Z" id="path-3"></path>
        <filter x="-5.0%" y="-1.7%" width="110.2%" height="104.5%" filterUnits="objectBoundingBox" id="filter-4">
            <feMorphology radius="1" operator="dilate" in="SourceAlpha" result="shadowSpreadOuter1"></feMorphology>
            <feOffset dx="0" dy="2" in="shadowSpreadOuter1" result="shadowOffsetOuter1"></feOffset>
            <feGaussianBlur stdDeviation="2" in="shadowOffsetOuter1" result="shadowBlurOuter1"></feGaussianBlur>
            <feComposite in="shadowBlurOuter1" in2="SourceAlpha" operator="out" result="shadowBlurOuter1"></feComposite>
            <feColorMatrix values="0 0 0 0 0   0 0 0 0 0   0 0 0 0 0  0 0 0 0.5 0" type="matrix" in="shadowBlurOuter1"></feColorMatrix>
        </filter>
        <linearGradient x1="50%" y1="100%" x2="50%" y2="0%" id="linearGradient-5">
            <stop stop-color="#330867" offset="0%"></stop>
            <stop stop-color="#30CFD0" offset="100%"></stop>
        </linearGradient>
        <linearGradient x1="50%" y1="100%" x2="50%" y2="0%" id="linearGradient-6">
            <stop stop-color="#330867" offset="0%"></stop>
            <stop stop-color="#30CFD0" offset="100%"></stop>
        </linearGradient>
        <path d="M159,296.906898 C159,292.878393 158.628288,288.858472 157.886022,284.899027 L137.004877,172.762339 L122.040977,92.3977126 C110.330872,29.5450596 55.7014826,-10.6925712 5.93414207e-14,2.50660449 L51.5769825,279.436413 L57.0401188,308.794256 C58.8301077,318.816294 63.1125057,328.226224 69.4925947,336.156715 C81.3882927,350.776367 99.6020378,358.125706 118.062582,353.73981 C130.934129,350.502591 142.049397,342.396562 149.070372,331.126764 C155.596712,320.911464 159.043899,309.031129 159,296.906898 Z" id="path-7"></path>
        <filter x="-5.1%" y="-1.7%" width="110.2%" height="104.5%" filterUnits="objectBoundingBox" id="filter-8">
            <feMorphology radius="1" operator="dilate" in="SourceAlpha" result="shadowSpreadOuter1"></feMorphology>
            <feOffset dx="0" dy="2" in="shadowSpreadOuter1" result="shadowOffsetOuter1"></feOffset>
            <feGaussianBlur stdDeviation="2" in="shadowOffsetOuter1" result="shadowBlurOuter1"></feGaussianBlur>
            <feComposite in="shadowBlurOuter1" in2="SourceAlpha" operator="out" result="shadowBlurOuter1"></feComposite>
            <feColorMatrix values="0 0 0 0 0   0 0 0 0 0   0 0 0 0 0  0 0 0 0.5 0" type="matrix" in="shadowBlurOuter1"></feColorMatrix>
        </filter>
        <linearGradient x1="50%" y1="100%" x2="50%" y2="0%" id="linearGradient-9">
            <stop stop-color="#330867" offset="0%"></stop>
            <stop stop-color="#30CFD0" offset="100%"></stop>
        </linearGradient>
        <linearGradient x1="50%" y1="100%" x2="50%" y2="0%" id="linearGradient-10">
            <stop stop-color="#330867" offset="0%"></stop>
            <stop stop-color="#30CFD0" offset="100%"></stop>
        </linearGradient>
    </defs>
    <g id="Page-1" stroke="none" stroke-width="1" fill="none" fill-rule="evenodd">
        <g id="Prototype-DARK" transform="translate(-236.000000, -455.000000)">
            <g id="Logo-Copy" filter="url(#filter-1)" transform="translate(246.000000, 469.000000)">
                <g id="Path_1" stroke-linejoin="round">
                    <use fill="black" fill-opacity="1" filter="url(#filter-4)" xlink:href="#path-3"></use>
                    <path stroke-opacity="0.598666958" stroke="#269391" stroke-width="1" d="M511.57854,2.1310708 C483.423308,-4.68902896 455.509875,2.08730382 433.18605,18.5302458 C411.008501,34.865446 394.347656,60.7447549 388.46744,92.3061332 L373.503525,172.670812 L352.622374,284.807494 C351.874524,288.796721 351.5,292.847484 351.5,296.906898 C351.458671,309.126453 354.936646,321.10095 361.518177,331.396077 C368.602144,342.768762 379.821914,350.953562 392.815311,354.224681 C401.987636,356.403907 411.093279,355.719647 419.411501,352.708321 C428.018763,349.592359 435.7834,343.983621 441.895215,336.472286 C448.329631,328.474282 452.647331,318.986802 454.452073,308.882168 L459.914561,279.527887 L511.57854,2.1310708 Z" fill="url(#linearGradient-2)" fill-rule="evenodd"></path>
                </g>
                <path d="M396.113086,285.19983 C395.37145,289.158403 395,293.177438 395,297.205056 C394.95346,309.331663 398.397083,321.215024 404.919281,331.433182 C409.899795,339.273119 416.840319,345.673563 425.052799,350 C431.434695,346.666326 437.063705,342.05419 441.59006,336.450173 C447.964298,328.521162 452.243008,319.113421 454.031967,309.093745 L459.490466,279.742371 L511,3 C472.50446,12.3979702 440.554385,46.40685 431.927707,92.7409366 L416.976508,173.083903 L396.113086,285.19983 Z" id="Path_5" fill="url(#linearGradient-5)"></path>
                <path d="M511,3 C472.50446,12.4144159 440.554385,46.4828086 431.927707,92.8979762 L416.976508,173.377579 L396.113086,285.685743 C395.37145,289.651243 395,293.677312 395,297.711977 C394.95346,309.859805 398.397083,321.763961 404.919281,332" id="Path_6" fill="url(#linearGradient-6)"></path>
                <g id="Path_2" stroke-linejoin="round">
                    <use fill="black" fill-opacity="1" filter="url(#filter-8)" xlink:href="#path-7"></use>
                    <path stroke-opacity="0.598666958" stroke="#269391" stroke-width="1" d="M51.085435,279.527962 L56.5485574,308.88573 C58.352649,318.986802 62.6703472,328.474282 69.1030172,336.47013 C75.2165737,343.983621 82.9812086,349.592359 91.5884674,352.708321 C99.9066868,355.719647 109.012327,356.403907 118.178156,354.22627 C131.181611,350.95592 142.405303,342.770863 149.494754,331.39115 C156.069747,321.099756 159.544244,309.125337 159.499997,296.905088 C159.5,292.847484 159.125422,288.796721 158.377461,284.806898 L137.496427,172.670806 L122.532528,92.3061857 C116.652304,60.7447549 99.9914653,34.865446 77.8139236,18.5302458 C55.490106,2.0873038 27.5766829,-4.68902899 -0.578539465,2.13107083 L51.085435,279.527962 Z" fill="url(#linearGradient-2)" fill-rule="evenodd"></path>
                </g>
                <path d="M114.888868,285.19983 C115.629855,289.158465 116.001674,293.1775 116,297.205056 C116.04654,309.331663 112.602859,321.215024 106.080551,331.433182 C101.100942,339.273949 94.1600541,345.67462 85.9466897,350 C79.5653016,346.666243 73.9368577,342.054098 69.4111203,336.450173 C63.0363381,328.521431 58.7575019,319.113574 56.9690019,309.093745 L51.5084369,279.744346 L-4.29656311e-14,3 C38.4942217,12.3979702 70.44484,46.40685 79.0736375,92.7409366 L94.0231179,173.087853 L114.888868,285.19983 Z" id="Path_3" fill="url(#linearGradient-5)"></path>
                <path d="M-4.29656311e-14,3 C38.4942217,12.4144159 70.44484,46.4828086 79.0736375,92.8979762 L94.0231179,173.377579 L114.888868,285.685743 C115.629855,289.651305 116.001674,293.677373 116,297.711977 C116.04654,309.859805 112.602859,321.763961 106.080551,332" id="Path_4" fill="url(#linearGradient-6)"></path>
                <path d="M453.833873,311.591752 C452.041686,321.643772 447.754027,331.081855 441.3661,339.036071 L438.005514,342.474042 C416.869405,364.058949 385.101984,363.630937 364.598457,338.086914 C343.26862,311.514472 276.596572,227.536837 276.596572,227.536837 C271.625099,220.87117 263.808644,216.946118 255.50593,216.946118 C247.203217,216.946118 239.386762,220.87117 234.415289,227.536837 L145.326156,339.519567 C123.545606,367.035221 87.1801124,359.638135 71.2647729,340.444946 C64.0979486,332.249457 59.2329836,322.291801 57.1681034,311.591752 L42,230.019705 C96.4830049,262.51695 135.457894,194.992035 178.90434,130.358186 C217.452237,73.0243284 297.536976,71.9344818 336.446631,130.768365 C385.341179,204.695633 405.769588,261.440974 469,230.019705 L453.833873,311.591752 Z" id="Path_9" fill="url(#linearGradient-9)"></path>
                <path d="M138.505658,279.194361 L232.735487,167.558937 C238.213632,160.875152 246.400342,157 255.042473,157 C263.684603,157 271.871314,160.875152 277.349458,167.558937 C277.349458,167.558937 347.87367,251.276122 370.429565,277.766152 C392.116253,303.230952 425.71699,303.655662 448.065461,282.139673 L451.621304,278.712365 C456.746666,272.739468 460.616508,265.795513 463,258.294696 L453.245138,310.735473 C451.454172,320.756318 447.169435,330.165129 440.785861,338.094675 L437.427565,341.521984 C416.30586,363.039947 384.560088,362.613262 364.070533,337.150437 C342.755232,310.658432 276.128619,226.941247 276.128619,226.941247 C271.160534,220.296254 263.349406,216.383375 255.05235,216.383375 C246.755294,216.383375 238.944166,220.296254 233.976081,226.941247 L144.937782,338.588524 C123.172075,366.018841 86.8313634,358.644696 70.9268697,339.511033 C63.7649294,331.340961 58.9032798,321.414189 56.8398066,310.747325 L47,257.939125 C49.811112,266.162021 54.2955127,273.713314 60.1704459,280.11687 C77.0034096,299.250534 115.467749,306.624678 138.505658,279.194361 Z" id="Path_10" fill="url(#linearGradient-10)"></path>
                <path d="M47,258.200403 C49.8093905,266.45064 54.29388,274.027388 60.1704459,280.452466 C77.0034096,299.638285 115.467749,307.03253 138.505658,279.527443 L232.735487,167.587719 C238.213632,160.885715 246.400342,157 255.042473,157 C263.684603,157 271.871314,160.885715 277.349458,167.587719 C277.349458,167.587719 347.87367,251.533103 370.429565,278.09534 C392.116253,303.629553 425.71699,304.05542 448.065461,282.480783 L451.621304,279.044133 C456.746666,273.054955 460.616508,266.092071 463,258.570808" id="Path_11" stroke="#707070" stroke-width="0.815" opacity="0.7" style="mix-blend-mode: overlay;"></path>
                <g id="Group_1" opacity="0.61" style="mix-blend-mode: multiply;" transform="translate(39.000000, 167.000000)" fill-rule="nonzero">
                    <path d="M433,44.2209482 L426.530393,78.8574982 C424.139445,84.812217 420.820494,90.3524615 416.696353,95.2732242 L413.058807,98.8498459 C390.251908,121.300998 355.974272,120.85861 333.852135,94.2877276 C330.487701,90.2469943 326.074357,84.9264979 321,78.7962749 L334.550749,6.22107038 L335.712468,5.6361695e-14 C363.659033,43.3341988 387.338705,66.9643915 433,44.2209482 Z" id="Path_7"></path>
                    <path d="M97.9779793,96.0761481 C74.4726861,124.901327 35.2312179,117.15998 18.0520651,97.044811 C13.1797657,91.491405 9.22369754,85.1899376 6.33405793,78.3796525 L6.45794182e-15,44.2357789 C37.6361805,66.6761367 68.0238234,41.0015986 97.5425128,1 L98.4490748,5.88110601 L112,78.9624414 L97.9779793,96.0761481 Z" id="Path_8"></path>
                </g>
            </g>
        </g>
    </g>
</svg>